# xmcd
#
# Track frame offsets:
# 150
# 11661
# 25533
# 35686
# 48562
# 59554
# 73463
# 86514
# 97143
# 109782
# 123391
# 134526
# 146246
# 157843
# 168574
# 179985
# 192548
# 202664
# 215862
# 228427
# 240575
# 249447
# 261026
# 271565
# 286238
# 301109
# 310882
# 323276
# 336217
# 347209
#
# Disc length: 4749 seconds
#
# Revision: 0
# Processed by: cddbd v1.4PL0 Copyright (c) Steve Scherf et al.
# Submitted via: Axialis_AX_CDPlayer 2.6
#
DISCID=c3128b1e
DTITLE=Willie Nelson - The complete Liberty Recordings plus more
DYEAR=1900
DGENRE=
TTITLE0=Night life
TTITLE1=Rainy day blues
TTITLE2=Touch me
TTITLE3=Wake me when it's over
TTITLE4=Hello walls
TTITLE5=Funny how time slips away
TTITLE6=Crazy
TTITLE7=The part where I cry
TTITLE8=Mr. Record Man
TTITLE9=Three days
TTITLE10=One step beyond
TTITLE11=Undo the right
TTITLE12=Darkness on the face
TTITLE13=Where my house lives
TTITLE14=How long is forever
TTITLE15=Country Willie
TTITLE16=Go away
TTITLE17=The waiting time
TTITLE18=You wouldn't ever cross
TTITLE19=There's gonna be love
TTITLE20=Take my word
TTITLE21=There goes a man
TTITLE22=Columbus stockade blues
TTITLE23=Chain of love
TTITLE24=Willingly
TTITLE25=Columbus stockade blues
TTITLE26=You dream about me
TTITLE27=Is this my destiny
TTITLE28=Together
TTITLE29=Columbus stockade blues
EXTD=
EXTT0=
EXTT1=
EXTT2=
EXTT3=
EXTT4=
EXTT5=
EXTT6=
EXTT7=
EXTT8=
EXTT9=
EXTT10=
EXTT11=
EXTT12=
EXTT13=
EXTT14=
EXTT15=
EXTT16=
EXTT17=
EXTT18=
EXTT19=
EXTT20=
EXTT21=
EXTT22=
EXTT23=
EXTT24=
EXTT25=
EXTT26=
EXTT27=
EXTT28=
EXTT29=
PLAYORDER=
